<svg width="120" height="120" viewBox="0 0 120 120" fill="none" xmlns="http://www.w3.org/2000/svg">
<g clip-path="url(#clip0_2406_16431)">
<path opacity="0.6" d="M55.6051 33.3865C55.5998 33.342 55.5998 33.2968 55.6051 33.2522V33.2109L55.6358 33.1285L55.6715 33.0871C55.6856 33.0656 55.7008 33.0448 55.7174 33.0251L55.7635 32.9891C55.781 32.9721 55.7997 32.9564 55.8197 32.9425V32.9425L69.9462 24.9577C70.0239 24.9124 70.112 24.8887 70.2016 24.8887C70.2913 24.8887 70.3794 24.9124 70.4571 24.9577C70.5343 25.0028 70.5986 25.0673 70.6434 25.1452C70.6883 25.2231 70.712 25.3115 70.7125 25.4015V41.0565L79.1068 45.7999V17.1637C79.1124 16.4382 78.921 15.725 78.5535 15.1017C78.186 14.4783 77.6564 13.9686 77.0223 13.628C76.4338 13.2981 75.7717 13.125 75.0987 13.125C74.4256 13.125 73.7638 13.2981 73.1753 13.628L52.0338 25.5822C50.5594 26.416 49.3318 27.6317 48.4769 29.1041C47.622 30.5765 47.1707 32.2524 47.1699 33.9594V64.4124L55.5642 59.6637L55.6051 33.3865Z" fill="white"/>
<path d="M94.0327 38.2551C94.1124 38.3003 94.1785 38.3663 94.2243 38.4461C94.2701 38.526 94.2939 38.6169 94.2932 38.7093C94.293 38.8007 94.2688 38.8905 94.2231 38.9694C94.1773 39.0483 94.1116 39.1136 94.0327 39.1584L80.7032 46.6943L89.0768 51.4221L105.354 42.219C105.977 41.8746 106.495 41.3666 106.855 40.7487C107.215 40.1308 107.402 39.4261 107.398 38.7093C107.403 37.9915 107.216 37.2857 106.856 36.6668C106.496 36.0479 105.978 35.5391 105.354 35.1942L84.2998 23.2917C83.0335 22.575 81.6213 22.1619 80.1719 22.084V30.4198L94.0327 38.2551Z" fill="white"/>
<path d="M33.082 67.984V72.428L46.1867 65.0212V33.99C46.1862 32.0977 46.6849 30.2394 47.6314 28.6064C48.5779 26.9734 49.9379 25.6247 51.5717 24.6992L72.713 12.7503C73.2538 12.4444 73.8463 12.2431 74.4602 12.1568L62.9955 5.67388C62.8812 5.60752 62.7636 5.54717 62.643 5.49318C62.079 5.23919 61.4637 5.12271 60.8469 5.15319C60.2301 5.18367 59.6292 5.36044 59.0924 5.66884L37.9509 17.6177C36.4755 18.4521 35.2467 19.6684 34.391 21.1416C33.5352 22.6148 33.0835 24.2918 33.082 25.9999V67.9737V67.984Z" fill="white"/>
<path d="M69.998 41.8203L56.6328 34.269V49.0414L84.2218 64.6394C85.8556 65.5649 87.2156 66.9136 88.1621 68.5466C89.1086 70.1796 89.6073 72.0378 89.6068 73.9302V97.5132C89.6062 98.2074 89.4654 98.8942 89.1929 99.5314L100.719 93.0125C101.327 92.6623 101.831 92.155 102.18 91.5427C102.53 90.9303 102.711 90.2352 102.706 89.5284V65.9454C102.706 64.2388 102.257 62.5628 101.403 61.0904C100.549 59.6179 99.3214 58.4023 97.8476 57.5683L88.8404 52.4788L69.998 41.8203Z" fill="white"/>
<path opacity="0.6" d="M79.9097 72.8603C79.9277 72.8728 79.9445 72.8867 79.9605 72.9017C79.9913 72.9214 80.0189 72.9456 80.0424 72.9738L80.0935 73.0514C80.1128 73.0784 80.1282 73.1078 80.1394 73.1391C80.1418 73.1752 80.1418 73.2114 80.1394 73.2475C80.1417 73.268 80.1417 73.2889 80.1394 73.3095V89.2792C80.1389 89.3693 80.1151 89.4577 80.0703 89.5355C80.0255 89.6134 79.9612 89.678 79.884 89.723C79.8077 89.772 79.7188 89.7972 79.6285 89.7954C79.5407 89.7951 79.4546 89.7718 79.3783 89.7281L65.502 81.8877L57.1334 86.6158L82.6021 101.016C83.2068 101.364 83.8918 101.543 84.5874 101.536C85.283 101.529 85.9642 101.335 86.5617 100.975C87.1649 100.624 87.6651 100.117 88.0116 99.5073C88.358 98.8971 88.5382 98.2048 88.5337 97.5014V73.9184C88.5329 72.2114 88.0819 70.5354 87.227 69.063C86.3721 67.5906 85.1442 66.375 83.6699 65.5412L56.5918 50.2217V59.6984L79.9097 72.8603Z" fill="white"/>
<path opacity="0.6" d="M15.327 26.8846C14.7366 26.5474 14.0686 26.3738 13.3904 26.3811C12.7122 26.3883 12.048 26.5762 11.4648 26.926C10.8792 27.2693 10.3937 27.7629 10.0573 28.3565C9.72089 28.9501 9.54551 29.6229 9.54888 30.3069V54.05C9.55046 55.5956 9.92014 57.1179 10.6268 58.4887L17.9429 54.3595V38.6944C17.942 38.604 17.9648 38.5149 18.0088 38.4361C18.0527 38.3573 18.1164 38.2914 18.1934 38.2453C18.271 38.2 18.3592 38.1762 18.4488 38.1762C18.5385 38.1762 18.6266 38.2 18.7043 38.2453L32.0645 45.8019V36.3407L15.327 26.8846Z" fill="white"/>
<path d="M33.2743 21.0673L29.4478 18.9047C28.8525 18.5634 28.1778 18.3889 27.4935 18.3988C26.8091 18.4088 26.1399 18.6029 25.5546 18.9614V18.9614L14.1562 25.403C14.7453 25.4899 15.3133 25.6859 15.8319 25.9811L32.0737 35.1582V26.0068C32.0724 24.2864 32.4845 22.5915 33.2743 21.0673V21.0673Z" fill="white"/>
<path opacity="0.6" d="M105.886 43.1161L90.1504 52.0094L98.3553 56.6547C99.8298 57.4905 101.083 58.6733 102.009 60.1027L105.386 58.1929C106.008 57.8484 106.526 57.3404 106.886 56.7225C107.246 56.1047 107.434 55.4 107.429 54.6831C107.429 54.6831 107.429 54.6831 107.429 54.6831V41.7793C107.009 42.3248 106.484 42.7793 105.886 43.1161V43.1161Z" fill="white"/>
<path opacity="0.6" d="M47.2168 110.812C47.2132 111.514 47.3933 112.204 47.7387 112.813C48.0841 113.422 48.5827 113.928 49.1839 114.28V114.28C49.7823 114.64 50.4643 114.834 51.1607 114.841C51.857 114.848 52.5428 114.669 53.1484 114.322L65.2877 107.457L74.2899 102.372C75.5994 101.63 76.7163 100.585 77.5494 99.3221L70.2486 95.1929L56.3723 103.038H56.3366C56.3366 103.038 56.311 103.038 56.2957 103.038C56.2411 103.063 56.1819 103.076 56.122 103.075C56.0606 103.075 55.9997 103.063 55.9432 103.038H55.9023C55.806 102.995 55.7268 102.921 55.6775 102.827C55.6775 102.827 55.6775 102.827 55.6775 102.801C55.6643 102.769 55.654 102.736 55.6468 102.703C55.6421 102.67 55.6421 102.637 55.6468 102.605C55.6468 102.605 55.6468 102.605 55.6468 102.574V87.5073L47.2528 92.2507L47.2168 110.812Z" fill="white"/>
<path d="M6.88526 68.8376L27.9397 80.7402C29.3602 81.5351 30.9574 81.9519 32.5813 81.9519C34.2051 81.9519 35.8023 81.5351 37.2228 80.7402L64.5002 65.3123L56.1316 60.5792L32.8494 73.7411C32.8259 73.7558 32.8 73.7663 32.7729 73.7721H32.7319C32.6878 73.7772 32.6434 73.7772 32.5992 73.7721V73.7721C32.5568 73.7771 32.5139 73.7771 32.4715 73.7721H32.4204C32.3969 73.7649 32.3746 73.7545 32.354 73.7411V73.7411L18.2377 65.7561C18.1588 65.7113 18.0929 65.6462 18.0471 65.5673C18.0013 65.4884 17.9772 65.3987 17.977 65.3072C17.9772 65.2158 18.0013 65.1258 18.0471 65.0469C18.0929 64.968 18.1588 64.9029 18.2377 64.8581L32.0986 57.0228V47.5566L18.7434 55.1079L6.93116 61.7819C6.30882 62.1276 5.79057 62.6365 5.43087 63.2552C5.07117 63.8739 4.88336 64.5794 4.88753 65.2969C4.8731 66.0143 5.05122 66.7222 5.40293 67.3456C5.75464 67.969 6.2669 68.4846 6.88526 68.8376V68.8376Z" fill="white"/>
<path opacity="0.6" d="M55.8657 86.17L78.6163 73.3075L65.537 65.916L37.7183 81.638C36.1475 82.5244 34.3777 82.9884 32.5786 82.9854C30.7795 82.9877 29.0098 82.5237 27.4388 81.638L6.38435 69.7355C5.7875 69.3995 5.26571 68.9428 4.85163 68.3937V81.2975C4.84746 82.015 5.03502 82.7203 5.39472 83.339C5.75442 83.9576 6.27292 84.4666 6.89526 84.8123L27.9497 96.7148C29.3702 97.5097 30.9674 97.9268 32.5913 97.9268C34.2151 97.9268 35.8123 97.5097 37.2328 96.7148L55.8707 86.175L55.8657 86.17Z" fill="white"/>
<path d="M46.1867 92.8125L37.7109 97.6023C36.2911 98.403 34.7063 98.8589 33.082 98.934V102.815C33.0827 103.532 33.2724 104.235 33.6316 104.853C33.9908 105.471 34.5065 105.981 35.1257 106.331L46.6058 112.818C46.3338 112.183 46.1929 111.498 46.192 110.806L46.1867 92.8125Z" fill="white"/>
</g>
<defs>
<clipPath id="clip0_2406_16431">
<rect width="103.226" height="109.677" fill="white" transform="translate(4.84375 5.16113)"/>
</clipPath>
</defs>
</svg>
